<?xml version="1.0" encoding="UTF-8"?>
<!DOCTYPE svg PUBLIC "-//W3C//DTD SVG 1.1//EN" "http://www.w3.org/Graphics/SVG/1.1/DTD/svg11.dtd">
<!-- Creator: CorelDRAW X6 -->
<svg xmlns="http://www.w3.org/2000/svg" xml:space="preserve" version="1.1" style="shape-rendering:geometricPrecision; text-rendering:geometricPrecision; image-rendering:optimizeQuality; fill-rule:evenodd; clip-rule:evenodd; background-color: white;"
viewBox="0 0 4917 5153"
 xmlns:xlink="http://www.w3.org/1999/xlink">
 <defs>
  <style type="text/css">
   <![CDATA[
    .str0 {stroke:#373435;stroke-width:83.3346}
    .fil0 {fill:none;fill-rule:nonzero}
    .fil3 {fill:#292929;fill-rule:nonzero}
    .fil2 {fill:#373435;fill-rule:nonzero}
    .fil1 {fill:#7BCFE0;fill-rule:nonzero}
    .fil5 {fill:#848688;fill-rule:nonzero}
    .fil4 {fill:#A9ABAE;fill-rule:nonzero}
   ]]>
  </style>
 </defs>
 <g id="Layer_x0020_1">
  <metadata id="CorelCorpID_0Corel-Layer"/>
  <path class="fil0 str0" d="M4708 5111l-4500 0c-92,0 -167,-75 -167,-167l0 -4748c0,-92 75,-167 167,-167l4500 0c92,0 167,75 167,167l0 4748c0,92 -75,167 -167,167z"/>
  <path class="fil1" d="M4550 1308c-117,-601 -681,-998 -1286,-906 -335,51 -595,224 -782,505 -18,27 -25,34 -47,2 -279,-403 -665,-577 -1148,-503 -542,83 -941,567 -940,1147 2,162 32,346 96,525 94,261 250,483 438,683 232,247 500,454 766,662 271,211 543,420 788,662 23,23 33,12 49,-4 197,-194 409,-369 622,-544 292,-240 588,-475 851,-748 216,-223 404,-466 516,-760 89,-233 125,-474 77,-720z"/>
  <path class="fil2" d="M2372 4512c3,1 6,1 9,2 3,1 6,2 8,3 17,-7 33,-17 48,-31 14,-14 27,-29 37,-46 11,-17 19,-35 24,-54 6,-19 9,-37 9,-55 0,-22 -3,-39 -8,-51 -5,-12 -12,-21 -20,-26 -8,-5 -17,-6 -27,-4 -10,2 -20,8 -30,16 -10,8 -19,19 -28,32 -9,13 -16,28 -21,45 2,29 2,58 0,86 -2,28 -3,56 -4,83l0 0zm-92 153c-3,0 -7,0 -13,0 -6,0 -11,1 -17,3 -6,2 -11,4 -15,6 -4,3 -6,6 -6,10 0,3 1,4 4,5 3,0 6,0 9,-2 4,-1 8,-3 12,-5 4,-2 8,-5 12,-7 4,-2 7,-5 10,-6 3,-2 4,-3 4,-3zm130 -135c9,7 18,14 26,23 8,9 16,18 24,27 8,9 15,19 23,28 8,9 15,18 23,26 8,8 16,15 25,21 9,6 18,10 28,12 10,2 20,3 32,1 11,-2 24,-7 37,-14 2,-1 4,-1 6,0 2,1 3,2 3,4 1,2 1,3 0,6 0,2 -1,4 -2,5 -15,10 -29,17 -42,20 -13,3 -26,4 -39,1 -12,-2 -24,-7 -36,-13 -12,-6 -23,-14 -33,-23 -11,-9 -21,-19 -31,-29 -10,-11 -20,-21 -29,-32 -10,-10 -19,-20 -28,-30 -9,-9 -18,-17 -27,-24 -3,25 -8,49 -15,70 -7,22 -17,40 -30,55 5,3 10,6 16,9 6,4 12,8 18,12 0,0 1,1 1,1 0,1 0,2 -1,3 -1,1 -1,2 -2,3 -1,1 -2,2 -3,3 -1,1 -2,1 -2,1 -6,-4 -13,-9 -20,-12 -7,-4 -13,-7 -19,-9 -4,4 -9,7 -15,11 -6,4 -12,7 -19,10 -7,3 -13,5 -20,7 -6,2 -12,3 -18,3 -9,0 -15,-2 -20,-6 -4,-4 -6,-9 -6,-14 0,-4 1,-7 3,-11 2,-4 6,-8 10,-12 4,-4 10,-7 17,-9 7,-2 15,-3 24,-3 8,0 16,1 23,2 5,-9 10,-18 14,-28 4,-10 7,-21 10,-32 3,-11 5,-22 7,-34 2,-11 3,-22 4,-32l-10 -2c-2,-1 -3,-3 -4,-5 -1,-2 -1,-5 -1,-7 0,-2 1,-5 2,-6 1,-2 3,-3 6,-3l9 0c1,-16 2,-33 2,-51 0,-18 0,-36 -1,-54 -1,-18 -1,-35 -2,-53 -1,-17 -1,-33 -1,-48 0,-7 3,-12 8,-15 5,-3 11,-5 17,-5 6,0 10,1 13,3 3,2 5,4 7,8 1,3 2,7 2,11 0,4 0,8 0,12 8,-18 17,-33 29,-46 12,-13 25,-22 38,-28 13,-6 27,-9 40,-9 13,0 25,4 36,11 11,7 20,18 26,33 7,15 10,33 10,56 0,22 -4,44 -12,65 -8,21 -19,41 -32,58 -13,18 -28,34 -45,47 -17,13 -35,24 -53,31z"/>
  <path class="fil2" d="M2623 4591c4,0 8,-3 13,-9 4,-6 9,-12 13,-20 4,-7 8,-15 11,-22 3,-7 5,-13 7,-17 2,-5 4,-10 7,-13 3,-3 7,-6 10,-7 4,-1 7,-2 11,-1 4,1 7,2 9,5 3,2 5,6 6,10 1,4 1,9 0,15 0,2 -1,6 -2,11 -1,5 -1,11 -2,17 -1,6 -1,13 -1,20 0,7 1,13 2,18 1,5 3,10 5,14 2,4 6,5 10,5 9,0 20,-6 31,-18 11,-12 23,-30 33,-54 1,-2 2,-2 4,-2 2,0 3,0 5,1 1,1 3,2 4,3 1,1 1,3 1,4 -7,16 -14,29 -22,41 -8,11 -16,21 -24,28 -8,7 -16,13 -24,16 -8,4 -16,5 -23,5 -9,0 -17,-2 -23,-7 -6,-5 -10,-11 -14,-19 -3,-8 -5,-16 -7,-25 -1,-9 -2,-18 -2,-26 -4,8 -10,16 -16,24 -6,8 -12,14 -19,17 -6,3 -12,5 -18,5 -6,0 -11,-1 -16,-3 -5,-3 -8,-6 -11,-11 -3,-5 -4,-11 -4,-18 0,-8 1,-15 4,-23 3,-8 7,-15 12,-21 5,-6 11,-11 18,-15 7,-4 14,-6 22,-6 4,0 7,1 11,2 3,1 6,3 8,5 2,2 4,4 4,6 1,2 0,4 -1,6 -1,1 -2,2 -3,2 -1,0 -3,0 -4,0 -3,0 -6,1 -9,4 -3,3 -6,6 -8,10 -3,4 -5,9 -7,13 -2,5 -3,9 -4,13 -1,4 -1,7 -1,10 0,3 1,4 3,4z"/>
  <path class="fil2" d="M2825 4548c0,2 0,5 0,9 0,4 0,9 1,14 0,5 1,11 1,16 1,6 1,11 2,15 1,5 2,9 4,11 1,3 3,4 5,4 2,0 4,-2 7,-5 2,-4 4,-8 6,-14 2,-6 4,-12 6,-19 2,-7 4,-13 6,-20 2,-6 3,-12 5,-18 1,-5 3,-9 4,-12 3,-8 7,-14 12,-20 4,-6 11,-9 18,-9 7,0 12,3 15,8 4,5 6,11 8,19 2,8 3,16 4,24 1,9 2,17 3,24 1,8 3,14 6,19 2,5 6,8 11,8 5,0 10,-2 15,-7 5,-4 10,-10 15,-16 5,-6 9,-13 12,-20 4,-7 6,-12 8,-17 1,-2 2,-2 4,-2 2,0 3,0 5,1 2,1 3,2 4,3 1,1 1,3 1,4 -4,8 -8,17 -13,25 -5,9 -11,17 -17,24 -6,7 -13,13 -21,18 -7,5 -15,7 -24,7 -9,0 -17,-3 -24,-9 -7,-6 -13,-14 -17,-23 -5,-9 -8,-18 -10,-28 -2,-10 -3,-19 -2,-27 -2,6 -5,12 -7,20 -2,7 -4,15 -6,23 -2,8 -4,15 -7,22 -3,7 -6,14 -9,20 -4,6 -8,11 -13,14 -5,4 -11,5 -18,5 -6,0 -11,-2 -16,-5 -5,-4 -9,-9 -13,-15 -4,-6 -6,-14 -8,-23 -2,-9 -3,-18 -3,-28 0,-7 0,-13 0,-17 0,-5 1,-9 2,-12 1,-3 3,-6 6,-7 3,-2 6,-2 11,-2 6,0 11,2 15,5 4,3 6,7 6,11z"/>
  <path class="fil2" d="M3164 4297c-10,12 -18,26 -25,43 -7,17 -12,35 -16,55 -4,19 -7,39 -9,58 -2,20 -4,38 -5,56 7,-7 15,-15 24,-24 9,-9 17,-19 26,-30 8,-11 16,-21 24,-33 8,-11 14,-23 20,-34 6,-12 10,-23 12,-34 3,-11 3,-22 2,-32 -1,-10 -4,-18 -7,-24 -3,-6 -8,-11 -12,-13 -5,-2 -10,-3 -16,-1 -6,2 -12,7 -18,14zm-130 296c5,-7 10,-14 14,-22 4,-8 8,-16 11,-23 -4,-1 -8,-1 -12,0 -4,1 -7,4 -10,7 -3,3 -6,6 -8,10 -2,4 -4,7 -6,10 -3,5 -5,11 -6,16 -1,5 -2,9 -1,12 0,3 2,4 5,3 3,-1 7,-5 13,-13zm30 -61c0,-13 1,-28 2,-44 1,-16 3,-32 5,-49 2,-17 5,-34 8,-50 4,-17 8,-33 13,-48 5,-15 12,-29 20,-41 8,-12 17,-22 28,-29 11,-8 22,-12 33,-12 11,0 20,2 28,7 8,5 15,12 21,22 5,10 9,20 10,33 1,11 0,23 -3,35 -3,13 -8,26 -15,39 -6,13 -14,26 -23,39 -9,13 -18,25 -27,37 -10,12 -19,23 -29,32 -10,10 -19,18 -27,25 0,5 0,12 0,20 0,8 0,16 0,24 0,8 1,17 2,25 1,8 2,15 4,22 2,6 4,11 7,15 3,4 6,6 11,5 5,0 10,-2 15,-6 5,-4 10,-9 16,-14 5,-6 10,-12 15,-19 5,-7 9,-14 13,-21 4,-7 8,-13 11,-20 3,-6 5,-11 7,-15 1,-2 2,-3 4,-4 2,0 3,0 5,1 2,1 3,2 4,4 1,2 1,3 1,5 -2,6 -6,13 -10,21 -4,8 -9,16 -15,25 -6,9 -12,17 -18,25 -7,8 -14,16 -21,22 -7,6 -14,12 -21,16 -7,4 -14,6 -21,6 -8,0 -15,-2 -21,-7 -6,-5 -11,-12 -15,-20 -4,-8 -8,-18 -10,-30 -3,-11 -4,-24 -5,-37 -3,6 -7,13 -11,19 -4,7 -9,13 -14,18 -5,5 -11,10 -18,14 -6,4 -14,6 -21,7 -8,1 -14,-1 -19,-6 -5,-4 -8,-13 -8,-24 0,-7 1,-15 4,-22 3,-7 6,-14 11,-20 5,-6 10,-12 16,-17 6,-5 12,-8 19,-11 7,-3 14,-4 21,-3 7,0 14,2 21,6z"/>
  <path class="fil2" d="M3216 4454c0,-6 2,-12 6,-16 4,-4 9,-6 16,-6 6,0 12,2 16,6 4,4 6,9 6,16 0,6 -2,12 -6,16 -4,4 -9,6 -16,6 -6,0 -12,-2 -16,-6 -4,-4 -6,-9 -6,-16zm117 91c1,-1 2,-2 4,-2 2,0 3,0 5,1 2,1 3,2 4,3 1,1 1,3 1,4 -4,10 -9,20 -16,30 -7,11 -15,20 -23,29 -9,9 -18,16 -29,22 -10,6 -21,9 -32,9 -8,0 -14,-2 -20,-6 -5,-4 -9,-10 -12,-16 -3,-7 -5,-14 -6,-23 -1,-8 -2,-17 -2,-25 0,-10 0,-18 1,-25 1,-7 2,-13 4,-18 2,-5 5,-8 8,-10 4,-2 8,-3 13,-3 6,0 11,2 15,5 4,3 6,7 6,11 0,2 0,5 -1,10 -1,4 -2,9 -2,14 -1,5 -2,11 -2,17 -1,6 -1,12 -1,17 0,9 1,16 2,22 2,6 5,9 10,9 7,0 15,-3 22,-9 8,-6 15,-13 22,-21 7,-8 13,-16 18,-24 5,-8 9,-15 11,-20z"/>
  <path class="fil2" d="M3705 4376c0,-2 1,-4 1,-9 1,-4 1,-9 2,-15 1,-5 1,-11 2,-17 1,-6 1,-11 2,-16 0,-5 1,-9 1,-12 0,-3 0,-5 -1,-5 -2,0 -3,3 -4,10 -1,6 -2,14 -3,22 -1,8 -1,16 -1,24 0,8 1,14 2,17zm-267 -44c-2,-1 -4,-2 -4,-4 -1,-2 -1,-3 -1,-5 0,-2 1,-3 3,-4 1,-1 3,-2 5,-2 17,0 31,4 43,12 12,8 22,19 31,33 8,14 15,30 21,48 6,18 11,37 15,56 4,20 8,39 12,59 4,20 8,38 12,55 1,5 3,11 5,19 2,8 5,16 8,24 3,8 7,15 11,20 4,6 9,9 15,9 4,0 9,-3 13,-8 4,-5 8,-12 12,-21 4,-9 8,-19 12,-30 4,-11 7,-23 11,-34 3,-12 7,-23 9,-35 3,-11 5,-22 8,-31 -2,-4 -4,-11 -6,-19 -2,-8 -4,-18 -6,-29 -2,-11 -4,-23 -5,-35 -1,-13 -2,-25 -2,-38 0,-12 0,-24 2,-36 1,-11 4,-22 7,-30 3,-9 8,-16 13,-21 6,-5 13,-8 21,-8 8,0 14,3 18,9 4,6 6,14 7,23 1,9 0,20 -1,31 -2,11 -3,22 -5,33 -2,11 -4,21 -6,29 -2,9 -3,15 -4,20 2,12 5,25 8,40 3,15 7,30 11,45 4,15 8,30 13,44 5,14 9,27 14,38 5,11 9,20 14,27 5,7 9,10 13,10 5,0 11,-5 16,-16 5,-11 11,-25 17,-44 6,-18 11,-39 17,-63 6,-24 12,-48 19,-73 6,-25 13,-50 20,-75 7,-25 15,-47 23,-68 8,-20 16,-38 25,-53 9,-15 18,-24 28,-29 1,-1 3,0 4,1 1,1 3,3 4,4 1,2 2,4 2,6 0,2 0,4 -2,5 -8,4 -16,12 -23,22 -7,11 -14,24 -21,40 -7,16 -13,33 -19,52 -6,19 -12,39 -17,59 -5,20 -11,41 -16,62 -5,21 -11,41 -16,60 -5,19 -11,37 -16,53 -5,16 -11,30 -16,41 -6,12 -12,20 -19,26 -7,5 -13,8 -21,8 -10,0 -19,-4 -27,-11 -9,-7 -17,-17 -24,-29 -7,-12 -14,-25 -20,-40 -6,-15 -11,-30 -16,-45 -2,9 -4,18 -7,29 -3,10 -6,21 -9,32 -3,11 -7,21 -11,31 -4,10 -8,19 -12,26 -8,14 -17,25 -25,32 -9,7 -17,10 -25,10 -7,0 -14,-2 -21,-6 -6,-4 -12,-10 -17,-17 -5,-7 -10,-16 -14,-27 -4,-10 -9,-21 -12,-34 -5,-17 -10,-35 -15,-54 -4,-19 -9,-38 -13,-58 -4,-19 -9,-38 -13,-56 -4,-18 -9,-34 -15,-48 -5,-14 -11,-25 -18,-34 -7,-9 -14,-14 -22,-16z"/>
  <path class="fil2" d="M3986 4610c-7,0 -14,-1 -21,-2 -7,-1 -14,-3 -20,-5 2,6 4,11 8,14 3,3 7,5 11,6 4,1 8,0 12,-2 4,-2 8,-6 11,-11zm-27 -96c-6,0 -12,2 -18,6 -6,4 -11,8 -14,14 4,-3 9,-5 14,-5 3,0 6,1 9,2 3,1 5,3 7,4 2,2 3,3 4,5 1,2 1,3 1,5 0,1 0,1 -1,2 -5,6 -9,12 -12,18 -3,6 -5,14 -5,22 9,3 17,6 25,7 8,1 15,2 23,2 2,-7 3,-15 2,-24 0,-9 -1,-18 -4,-27 -2,-9 -6,-16 -11,-22 -5,-6 -12,-9 -21,-9zm-52 56c-1,-2 -1,-4 -2,-7 0,-2 0,-5 0,-7 0,-7 2,-14 5,-20 3,-7 7,-12 12,-18 5,-5 11,-9 17,-12 6,-3 13,-5 20,-5 11,0 20,3 27,10 7,7 13,15 17,25 4,10 6,20 7,31 1,11 0,20 -2,28 7,0 13,-1 18,-4 5,-2 10,-6 14,-10 4,-4 8,-9 12,-15 4,-6 7,-13 11,-21 1,-2 2,-3 4,-3 2,0 4,0 5,1 2,1 3,2 4,3 1,2 1,3 0,5 -4,10 -9,18 -13,25 -5,7 -10,13 -16,18 -6,5 -12,9 -19,11 -7,3 -15,4 -24,4 -6,11 -13,19 -20,23 -8,5 -15,8 -23,8 -8,0 -15,-1 -22,-5 -7,-3 -13,-8 -18,-15 -5,-6 -9,-14 -11,-23 -2,-9 -2,-18 0,-28z"/>
  <path class="fil2" d="M4147 4316c-7,13 -14,28 -19,43 -5,16 -9,32 -12,49 -3,17 -5,34 -7,51 -2,17 -3,34 -4,50 8,-7 16,-15 24,-23 9,-9 17,-18 25,-29 8,-10 16,-21 23,-32 7,-11 14,-22 19,-34 6,-11 10,-22 13,-34 3,-11 5,-22 5,-32 0,-16 -3,-27 -8,-34 -5,-7 -11,-10 -18,-10 -7,0 -15,3 -23,10 -8,6 -15,14 -20,24zm-33 -21c6,-9 13,-16 22,-21 8,-6 17,-10 25,-12 9,-2 17,-3 25,-2 8,1 16,4 22,9 6,5 12,12 16,22 4,9 6,21 6,34 0,11 -2,23 -6,36 -4,12 -9,25 -15,38 -6,13 -14,25 -22,38 -8,12 -17,24 -26,35 -9,11 -18,22 -28,31 -9,10 -18,18 -26,24 0,6 0,12 0,20 0,8 0,16 1,24 1,8 2,16 3,24 1,8 3,15 6,21 2,6 5,11 9,15 4,4 8,5 13,5 5,0 11,-2 17,-6 6,-4 12,-8 17,-14 6,-6 11,-12 17,-19 5,-7 10,-14 15,-21 4,-7 8,-13 12,-19 3,-6 6,-11 7,-15 1,-2 3,-2 4,-3 2,0 3,0 5,0 2,1 3,2 4,3 1,1 1,3 1,5 -3,7 -6,14 -11,22 -4,8 -9,16 -15,25 -6,8 -12,16 -19,24 -7,8 -14,15 -22,21 -8,6 -16,11 -24,15 -8,4 -17,6 -25,6 -13,0 -24,-4 -32,-13 -8,-9 -14,-20 -18,-33 -4,-14 -7,-28 -8,-45 -1,-16 -2,-32 -2,-47 0,-21 1,-42 4,-65 3,-22 6,-44 11,-64 5,-21 10,-40 17,-57 7,-18 14,-32 23,-43z"/>
  <path class="fil2" d="M4264 4636c0,-6 -1,-12 -4,-19 -2,-7 -5,-12 -8,-16 -8,3 -14,7 -20,12 -5,5 -8,11 -8,20 0,7 2,13 6,17 4,4 9,7 15,7 6,0 10,-2 14,-6 3,-4 5,-9 5,-14zm40 -101c0,2 -1,3 -3,4 -2,1 -3,2 -5,2 -2,0 -4,0 -5,-1 -2,-1 -3,-2 -3,-5 0,-4 -2,-7 -5,-10 -3,-3 -6,-5 -10,-5 -3,-1 -7,-1 -10,1 -3,1 -5,4 -6,9 -1,4 0,8 1,12 1,4 3,8 5,12 2,4 5,8 9,13 3,4 7,9 10,13 8,-1 16,-3 23,-4 7,-1 14,-3 20,-5 6,-2 12,-5 17,-9 5,-4 9,-9 13,-16 1,-2 2,-2 4,-3 2,0 4,0 5,1 2,1 3,2 4,3 1,2 1,3 0,5 -5,9 -10,16 -16,21 -6,5 -12,9 -19,11 -7,3 -13,4 -21,5 -7,1 -15,2 -22,3 3,5 5,11 6,16 1,5 2,10 2,15 0,7 -1,14 -4,21 -3,6 -6,12 -11,16 -4,4 -9,8 -15,10 -6,3 -12,4 -18,4 -6,0 -11,-1 -16,-3 -5,-2 -9,-5 -13,-9 -4,-4 -7,-8 -9,-13 -2,-5 -3,-10 -3,-16 0,-5 1,-10 3,-15 2,-4 5,-8 8,-12 3,-3 7,-6 11,-9 4,-3 8,-5 12,-7 -6,-7 -11,-15 -15,-22 -5,-7 -7,-15 -8,-22 -1,-6 0,-12 2,-18 2,-5 5,-10 10,-14 4,-4 9,-7 14,-9 5,-2 10,-3 15,-4 5,0 10,1 14,2 5,1 9,3 13,6 4,3 7,6 10,11 3,4 4,9 5,15z"/>
  <path class="fil2" d="M4414 4540c-3,1 -5,3 -8,5 -2,2 -5,4 -7,7 -2,3 -4,5 -5,8 -1,3 -2,5 -3,8 3,1 7,1 11,1 4,0 8,-1 11,-2 4,-1 7,-3 9,-5 3,-2 4,-6 4,-10 0,-4 -1,-7 -4,-10 -3,-3 -6,-3 -10,-2zm-24 42c0,12 4,21 11,27 7,6 16,9 27,7 10,-2 19,-4 27,-9 8,-4 15,-10 22,-16 7,-6 12,-14 17,-22 5,-8 10,-16 13,-25 1,-2 2,-2 3,-3 2,0 3,0 5,1 2,1 3,2 4,3 1,1 1,3 1,5 -5,11 -11,21 -17,30 -6,9 -13,17 -20,24 -7,7 -15,13 -24,17 -9,5 -19,8 -30,11 -10,2 -20,3 -31,2 -10,-1 -19,-4 -27,-9 -8,-5 -14,-11 -19,-19 -5,-8 -7,-18 -7,-30 0,-9 2,-17 5,-25 3,-8 8,-15 14,-21 6,-6 13,-10 21,-13 8,-3 17,-4 26,-2 5,1 9,2 14,4 4,2 8,5 11,8 3,3 5,7 7,12 1,4 1,9 0,15 -1,6 -4,11 -8,15 -4,4 -8,7 -13,9 -5,2 -10,4 -16,4 -6,1 -11,0 -16,-1z"/>
  <path class="fil2" d="M4578 4792c4,-9 6,-19 9,-30 2,-11 4,-22 6,-32 2,-11 3,-21 3,-32 1,-10 1,-19 2,-27 -8,5 -16,10 -23,15 -8,5 -15,10 -22,16 -7,6 -14,12 -20,18 -6,6 -12,14 -16,22 -5,9 -9,18 -12,26 -2,8 -4,16 -4,24 0,7 1,13 3,18 2,6 4,10 7,14 3,4 7,7 11,9 4,2 8,3 13,3 7,0 15,-3 23,-10 8,-7 15,-18 21,-33zm-74 -58c5,-9 11,-17 19,-24 7,-7 15,-14 23,-21 8,-6 17,-12 26,-18 9,-6 18,-11 27,-16 0,-5 0,-11 0,-16 0,-5 0,-11 0,-18 0,-6 0,-14 0,-21 0,-8 0,-17 0,-26 -2,7 -5,14 -8,21 -3,7 -7,13 -11,19 -4,6 -9,10 -15,14 -6,4 -13,5 -21,5 -7,0 -12,-2 -17,-5 -5,-4 -8,-8 -11,-14 -3,-6 -5,-12 -7,-20 -1,-7 -2,-15 -3,-23 -1,-8 -1,-15 0,-23 0,-7 0,-14 1,-19 1,-7 3,-13 8,-16 5,-3 10,-5 15,-5 5,0 10,1 14,4 4,3 5,8 5,14 0,16 -1,29 -1,40 0,11 1,19 1,26 1,7 2,11 4,14 2,3 4,4 6,4 5,0 9,-3 13,-10 4,-7 8,-15 11,-24 3,-10 6,-19 8,-30 2,-10 4,-19 6,-26 0,-6 2,-11 6,-13 4,-2 8,-4 13,-4 3,0 6,0 9,1 3,1 6,2 8,3 3,1 5,3 6,5 2,2 3,4 3,6 1,19 1,38 1,56 0,18 0,36 -1,54 6,-5 12,-10 19,-16 7,-6 13,-12 19,-19 6,-7 12,-14 17,-22 5,-8 10,-16 14,-25 1,-2 3,-4 5,-4 2,0 3,0 5,1 1,1 3,2 3,4 1,2 1,4 1,5 -5,11 -10,21 -17,30 -7,9 -14,18 -21,25 -7,8 -15,15 -23,21 -8,6 -15,12 -22,17 0,13 -1,27 -2,42 -1,15 -3,30 -5,44 -2,15 -6,29 -11,43 -5,14 -11,26 -19,37 -11,15 -22,26 -34,33 -11,7 -23,10 -33,10 -8,0 -15,-2 -21,-5 -6,-3 -12,-7 -17,-13 -5,-5 -9,-12 -12,-20 -3,-8 -4,-16 -4,-25 0,-9 1,-18 4,-28 3,-10 7,-20 14,-31z"/>
  <path class="fil3" d="M1062 1641c0,93 0,186 0,279 -65,-6 -116,-26 -150,-92 -35,-67 30,-166 88,-177 20,-4 41,-7 61,-10z"/>
  <path class="fil3" d="M1766 1922c0,-93 0,-186 0,-279 130,1 1374,1 1391,0 0,93 0,186 0,279 -137,-7 -1377,-1 -1391,0z"/>
  <path class="fil3" d="M3860 1920c0,-93 0,-186 0,-279 15,2 30,3 45,6 69,13 111,67 109,139 -2,68 -48,118 -117,127 -12,2 -24,4 -37,6z"/>
  <path class="fil4" d="M1237 2397l-14 0c-92,0 -167,-75 -167,-167l0 -896c0,-92 75,-167 167,-167l14 0c92,0 167,75 167,167l0 896c0,92 -75,167 -167,167z"/>
  <path class="fil5" d="M1603 2567l-32 0c-92,0 -167,-75 -167,-167l0 -1236c0,-92 75,-167 167,-167l32 0c92,0 167,75 167,167l0 1236c0,92 -75,167 -167,167z"/>
  <path class="fil4" d="M3691 2397l14 0c92,0 167,-75 167,-167l0 -896c0,-92 -75,-167 -167,-167l-14 0c-92,0 -167,75 -167,167l0 896c0,92 75,167 167,167z"/>
  <path class="fil5" d="M3325 2567l37 0c92,0 167,-75 167,-167l0 -1236c0,-92 -75,-167 -167,-167l-37 0c-92,0 -167,75 -167,167l0 1236c0,92 75,167 167,167z"/>
  <path class="fil2" d="M399 3183c-2,2 -6,3 -11,3l0 0c-9,0 -18,0 -27,0 -9,0 -18,0 -27,0 -6,0 -13,0 -19,0 20,-111 41,-225 63,-338 2,15 4,31 5,47 1,17 2,35 3,52 1,18 2,35 3,53 3,51 7,101 12,154l1 12c1,10 0,16 -2,19zm65 39c-7,-89 -13,-180 -19,-269 -4,-75 -11,-154 -33,-229 -3,-9 -12,-26 -23,-26 0,0 0,0 0,0 -13,-1 -27,8 -34,18 -7,11 -12,26 -15,44 -13,64 -26,128 -39,191 -5,25 -10,51 -15,76l-54 263c-4,20 -6,37 -7,53 -1,10 1,18 6,24 3,5 10,10 22,11 1,0 2,0 3,0 20,0 30,-10 32,-31 1,-7 2,-14 3,-20 2,-20 5,-40 9,-59 1,-4 8,-9 10,-9 28,-2 57,0 86,-2 6,0 10,1 12,3 3,3 5,9 6,19 1,21 2,43 4,64 1,13 9,26 19,32 6,4 13,4 18,2 9,-2 15,-10 20,-15 2,-2 4,-4 5,-6l3 -3 -3 -18c-6,-41 -12,-76 -15,-112z"/>
  <path class="fil2" d="M1143 3045c-10,32 -25,58 -45,78 -2,2 -4,4 -7,5 -1,1 -2,1 -3,1 0,-2 -1,-5 -1,-7 -1,-5 -2,-10 -2,-15 -2,-19 -3,-38 -4,-56 -2,-49 -4,-104 -4,-157 -1,-36 -4,-74 -10,-112 -1,-7 -1,-15 -1,-23 29,6 50,28 66,68 9,20 15,42 21,63 16,56 3,109 -12,153l0 0zm-18 204c9,21 5,45 -9,57l0 0c-5,4 -10,6 -13,4 -4,-2 -7,-8 -8,-17 -3,-25 -4,-51 -6,-78l-1 -11c16,13 29,25 38,44zm81 -395c-7,-24 -14,-50 -27,-72l0 0c-20,-31 -40,-60 -73,-73 -7,-3 -13,-6 -20,-9 -9,-4 -18,-8 -27,-12 -19,-7 -36,2 -47,25 -7,16 -6,32 -4,47 7,60 11,126 13,208 0,7 0,15 1,22 1,19 2,38 4,57 2,31 5,63 5,94 1,81 5,143 12,201 2,18 8,36 31,36 2,0 3,0 5,0 20,-2 41,-6 61,-13 14,-5 25,-15 36,-33 22,-38 19,-97 -7,-132 -4,-6 -9,-12 -13,-18 -3,-4 -6,-8 -9,-12 3,-5 6,-9 9,-14 5,-8 11,-17 16,-26 11,-19 22,-38 29,-60 8,-21 14,-43 17,-67 5,-36 9,-83 -5,-133 -2,-5 -3,-11 -5,-16z"/>
  <path class="fil2" d="M1561 2695c-35,4 -71,9 -106,2 -17,-3 -30,6 -40,25 -9,17 -8,34 -7,50 0,4 0,8 0,12 1,29 1,57 2,86 1,57 2,115 4,173 2,52 4,105 7,156 1,26 3,52 4,78 1,12 2,25 4,37 1,8 2,16 3,23 1,17 13,24 21,28 10,5 20,7 30,6 13,0 25,-3 37,-6 7,-2 13,-3 21,-4 8,-2 14,-6 19,-14 5,-8 7,-18 4,-27 -4,-17 -16,-24 -33,-21 -4,0 -8,1 -12,2 -5,1 -10,2 -15,2 -17,1 -17,1 -19,-19 -1,-6 -1,-12 -2,-17 -1,-11 -3,-21 -2,-23 1,-1 8,-1 14,-1 5,0 10,0 17,0 9,0 17,-4 23,-10 5,-6 8,-13 8,-20 0,-11 -3,-20 -10,-25 -6,-5 -14,-8 -24,-7 -5,0 -9,1 -14,1 -5,1 -10,1 -15,2 0,-2 -1,-5 -1,-7 -1,-8 -3,-16 -3,-23 -1,-38 -2,-76 -3,-113 -1,-36 -2,-73 -3,-109 -1,-52 -1,-104 -1,-154 0,-19 0,-19 16,-19 28,0 58,-1 82,-2 14,-1 32,-8 32,-40 0,-7 -2,-16 -8,-21 -6,-5 -14,-6 -27,-3z"/>
  <path class="fil2" d="M2059 2698l0 0c-4,0 -9,0 -13,0 -13,0 -26,0 -40,1l-17 2c-61,6 -119,12 -179,1 -14,-3 -29,-3 -45,-1 -7,2 -27,12 -25,23 1,12 7,26 15,35 8,6 18,7 26,7l4 0c22,4 45,5 68,7 12,1 19,6 19,25 1,63 3,127 4,184l13 291c1,24 3,48 4,71 1,11 5,19 11,25 5,4 12,6 20,6 2,0 5,0 7,0 9,-1 16,-5 21,-11 5,-7 6,-16 4,-26 -1,-8 -2,-16 -3,-24 -2,-15 -4,-30 -5,-45 -2,-36 -3,-71 -5,-106 -2,-36 -3,-72 -5,-108 -1,-30 -2,-60 -3,-90 -2,-57 -4,-117 -5,-175 0,-5 7,-15 10,-16 19,-2 39,-4 60,-5 11,-1 23,-1 35,-2 1,0 3,0 4,0 5,0 13,1 20,0 19,0 30,-12 30,-30 0,-32 -19,-38 -31,-38z"/>
  <path class="fil2" d="M2552 2698l0 0c-4,0 -9,0 -13,0 -13,0 -26,0 -40,1l-17 2c-61,6 -119,12 -179,1 -14,-3 -29,-3 -45,-1 -7,2 -27,12 -25,23 1,12 7,26 15,35 8,6 18,7 26,7l4 0c22,4 45,5 68,7 12,1 19,6 19,25 1,60 3,119 5,184l13 291c1,24 3,48 5,71 1,11 5,19 11,25 5,4 12,6 20,6 2,0 5,0 7,0 9,-1 16,-5 21,-11 5,-7 6,-16 4,-26 -1,-8 -2,-16 -3,-24 -2,-15 -4,-30 -5,-45 -2,-36 -3,-73 -5,-109 -2,-35 -3,-70 -5,-105 -1,-30 -2,-60 -3,-90 -2,-57 -4,-117 -5,-175 0,-5 7,-15 10,-16 19,-2 39,-4 60,-5 11,-1 23,-1 35,-2 1,0 3,0 4,0 5,0 13,1 20,0 19,0 30,-12 30,-30 0,-32 -19,-38 -31,-38z"/>
  <path class="fil2" d="M2925 2695c-35,4 -71,9 -106,2 -17,-3 -30,6 -40,25 -9,17 -8,34 -7,50 0,4 0,8 0,12 1,28 1,57 2,85 1,57 2,116 4,174 2,52 4,105 7,156 1,26 3,52 4,78 1,12 2,25 4,37 1,8 2,16 3,23 1,17 13,24 21,28 10,5 20,6 30,6 13,0 25,-3 37,-6 7,-2 13,-3 21,-4 8,-2 14,-6 19,-14 5,-8 7,-18 4,-27 -4,-17 -16,-24 -33,-21 -4,0 -8,1 -12,2 -5,1 -10,2 -15,2 -17,1 -17,1 -19,-19 -1,-6 -1,-12 -2,-17 -1,-11 -3,-21 -2,-23 1,-1 8,-1 14,-1 5,0 10,0 17,0 9,0 17,-4 23,-10 5,-6 8,-13 8,-20 0,-11 -3,-20 -10,-25 -6,-5 -14,-8 -24,-7 -5,0 -9,1 -14,1 -5,1 -10,1 -15,2 0,-2 -1,-5 -1,-7 -1,-8 -3,-16 -3,-23 -1,-38 -2,-76 -3,-114 -1,-36 -2,-72 -3,-108 -1,-52 -1,-104 -1,-154 0,-19 0,-19 16,-19 28,0 58,-1 82,-2 14,-1 32,-8 32,-40 0,-7 -2,-16 -8,-21 -6,-5 -14,-6 -27,-3z"/>
  <path class="fil2" d="M3289 2922c-1,61 -14,124 -41,199 -6,14 -15,27 -27,36 -1,1 -2,1 -4,2l-1 -17c-1,-32 -3,-61 -3,-91 -1,-21 -1,-44 -1,-66 0,-37 0,-76 -1,-114 0,-15 -1,-31 -2,-46 0,-8 -1,-16 -1,-23 0,-6 0,-12 1,-17 1,-6 4,-11 8,-12 1,0 2,0 3,0 3,0 5,1 7,3 27,19 45,48 56,88 5,19 5,38 5,58zm54 375l0 0c-8,-13 -18,-25 -28,-36l-2 -3c-14,-15 -26,-30 -41,-44 -6,-6 -5,-8 -3,-12 1,-2 3,-5 4,-7 2,-3 4,-6 5,-8 2,-4 5,-7 7,-10 8,-11 16,-23 20,-36 5,-11 8,-22 11,-34 2,-9 4,-18 8,-26 18,-51 25,-109 23,-182 0,-41 -9,-77 -26,-107 -21,-39 -42,-63 -67,-80 -15,-10 -34,-22 -57,-8l-3 2c-7,4 -14,8 -22,10 -17,6 -25,19 -25,40 0,15 1,29 2,44 1,14 1,27 2,41 1,46 2,92 4,138 1,46 2,92 4,138 1,59 3,119 4,181 0,15 4,29 7,38 8,24 23,25 29,24 14,-2 24,-15 25,-30 1,-11 1,-22 1,-32 0,-7 0,-14 1,-21l0 -20c24,18 45,42 62,72 8,13 17,26 31,35 3,2 9,5 15,5 4,0 7,-1 11,-4 10,-7 15,-19 12,-31 -4,-13 -7,-26 -14,-37z"/>
  <path class="fil2" d="M3989 2695l0 0c-5,1 -10,1 -15,2 -18,2 -35,5 -53,3 -11,-1 -23,-1 -31,6 -8,7 -9,21 -9,34 0,27 0,54 0,81 0,67 1,135 3,203 4,82 10,165 15,245l4 61c0,14 2,24 7,31 6,8 15,14 26,18 1,0 2,0 3,0 1,0 3,0 5,-2 5,-3 12,-12 13,-19 2,-14 3,-29 2,-48 0,-7 -1,-15 -2,-22 -1,-7 -2,-14 -2,-21 -1,-34 -1,-34 27,-39 2,0 4,-1 5,-2 16,-5 24,-20 21,-38 -2,-17 -16,-28 -34,-26l-10 3c-4,1 -12,2 -14,0 -1,-1 -2,-6 -3,-16 -3,-30 -4,-62 -5,-92 0,-10 -1,-20 -1,-30 -3,-72 -5,-153 -7,-233 0,-10 1,-19 1,-29l8 -1c13,-2 23,-3 34,-5 3,0 6,0 9,-1 9,-1 19,-1 28,-3 7,-2 13,-7 16,-13 3,-8 2,-18 -2,-27 -11,-21 -27,-20 -40,-19z"/>
  <path class="fil2" d="M4233 3229c0,-7 0,-14 0,-20 -1,-102 -1,-206 -1,-306l0 -160c0,-19 -10,-33 -24,-34 -23,-1 -28,16 -30,33 0,4 0,8 0,11 0,4 0,8 0,12 -1,89 -1,179 -1,266l1 7c0,12 0,25 0,37 0,29 0,59 0,88 1,55 4,109 6,162 1,12 6,22 14,28 5,4 12,6 18,6 2,0 4,0 6,-1 6,-1 11,-5 15,-12 6,-9 8,-22 5,-32 -8,-28 -8,-57 -8,-85z"/>
  <path class="fil2" d="M4661 2698l0 0c-4,0 -9,0 -13,0 -13,0 -26,0 -40,1l-17 2c-61,6 -119,12 -179,1 -14,-3 -29,-3 -45,-1 -7,2 -27,12 -25,23 1,12 7,26 15,35 8,6 18,7 26,7l4 0c22,4 45,5 68,7 12,1 19,6 19,25 1,62 3,124 4,184l13 291c1,24 3,47 5,71 1,11 5,19 11,25 5,4 12,6 20,6 2,0 5,0 7,0 9,-1 16,-5 21,-11 5,-7 6,-16 4,-26 -1,-8 -2,-16 -3,-24 -2,-15 -4,-30 -5,-45 -2,-36 -3,-72 -5,-108 -2,-35 -3,-71 -5,-106 -1,-30 -2,-60 -3,-89 -2,-57 -4,-117 -5,-176 0,-5 7,-15 10,-16 19,-2 39,-4 60,-5 11,-1 23,-1 35,-2 1,0 3,0 4,0 5,0 13,1 20,0 19,0 30,-12 30,-30 0,-32 -19,-38 -31,-38z"/>
  <path class="fil2" d="M2533 4898c5,-4 9,-6 12,-9 8,-11 13,-23 13,-37 0,-19 -6,-36 -12,-52 -3,-7 -9,-13 -17,-17 2,39 3,76 5,116zm2 19l1 23c0,5 -2,8 -7,8 -5,0 -8,-2 -8,-8l-3 -59c-1,-32 -2,-63 -4,-95 0,-4 -1,-9 -1,-13 -1,-7 1,-11 9,-11 11,-1 19,6 26,13 15,15 19,35 23,55 2,10 4,21 1,32 -4,18 -9,35 -24,47 -4,3 -8,5 -13,8z"/>
  <path class="fil2" d="M2662 4902c4,0 8,-1 11,-1 5,-1 8,2 8,7 0,4 -3,7 -7,7 -14,0 -13,-3 -11,14 1,7 1,7 8,7 3,0 6,-1 9,-1 4,-1 7,0 8,5 1,4 -1,8 -6,9 -9,1 -17,5 -26,1 -3,-1 -5,-3 -5,-6 -1,-6 -2,-11 -2,-17 -1,-22 -3,-44 -3,-66 -1,-24 -1,-49 -2,-73 0,-6 -1,-11 2,-17 2,-4 5,-7 10,-6 11,2 23,1 34,-1 7,-1 8,1 9,5 0,6 -3,9 -8,9 -9,0 -17,1 -26,1 -7,0 -7,0 -7,7 0,14 0,29 0,44 1,21 1,42 2,63 0,3 1,7 2,10z"/>
  <path class="fil2" d="M2788 4895c2,-1 3,-1 5,-2 4,-3 7,-7 9,-11 7,-18 13,-37 13,-57 0,-6 0,-11 -2,-17 -3,-11 -9,-20 -19,-26 -4,-3 -8,-1 -9,4 0,2 0,4 0,5 0,7 1,13 1,20 0,11 0,22 0,32 0,6 0,13 0,19 0,11 1,21 1,33zm2 22l0 9c0,5 0,10 -1,15 0,4 -3,6 -6,7 -3,0 -5,-2 -7,-6 -1,-3 -2,-7 -2,-10 -1,-17 -1,-34 -1,-51 -1,-26 -1,-52 -2,-79 0,-8 -1,-16 -1,-24 0,-5 2,-8 7,-9 3,-1 6,-2 8,-4 6,-3 11,-1 16,2 9,5 15,13 21,22 6,9 8,19 8,29 1,18 -1,35 -7,51 -2,6 -3,12 -6,17 -2,5 -5,9 -9,13 -1,2 -2,3 -3,4 -1,2 -1,4 1,6 5,4 9,9 14,13 3,3 6,6 9,10 2,3 3,6 4,10 1,3 -1,5 -3,7 -2,1 -4,1 -6,-1 -4,-2 -7,-6 -9,-9 -6,-8 -13,-16 -21,-21 -1,-1 -2,-1 -3,-1z"/>
  <path class="fil2" d="M2920 4951c-9,1 -16,-4 -20,-13 -1,-1 -1,-3 -2,-4 -1,-4 0,-8 3,-9 3,-2 7,0 9,4 2,3 4,6 7,8 3,3 5,2 7,-3 2,-4 1,-8 -1,-12 -2,-4 -4,-8 -6,-13 -5,-14 -11,-28 -15,-42 -4,-14 -8,-28 -11,-42 -1,-4 0,-9 1,-13 0,-2 1,-5 1,-7 1,-12 9,-21 17,-28 5,-4 9,-8 16,-10 11,-3 25,6 28,18 1,3 1,6 -2,8 -4,2 -7,1 -9,-3 -5,-12 -12,-12 -22,-5 -4,3 -7,6 -10,10 -5,5 -5,12 -6,19 -1,5 0,11 1,16 6,21 13,42 22,63 4,10 8,21 11,32 2,8 0,15 -4,22 -2,4 -4,4 -14,4z"/>
  <path class="fil2" d="M3018 4835c0,9 1,18 1,26 0,19 4,36 12,52 2,4 5,7 8,10 4,4 7,3 8,-2 2,-12 5,-24 6,-36 1,-11 1,-22 2,-34 1,-8 1,-16 1,-23 -1,-12 -1,-25 -11,-35 -7,-7 -14,-6 -18,3 -6,12 -7,26 -7,39zm52 7c-2,25 -3,50 -6,74 -1,7 -5,15 -8,22 -3,6 -11,7 -17,5 -17,-7 -23,-22 -28,-38 -8,-32 -10,-65 -5,-98 2,-13 9,-24 17,-33 3,-4 14,-3 20,1 19,10 23,29 25,49 1,6 0,12 0,19l1 0z"/>
  <path class="fil2" d="M3182 4861l0 -60c0,-8 0,-16 -1,-24 -1,-6 2,-9 6,-9 2,0 7,5 7,8 1,15 1,31 1,46 0,28 1,56 1,84 0,10 3,19 3,28 0,4 2,10 -5,10 -2,0 -5,-2 -6,-3 -1,-2 -2,-5 -2,-8 -3,-12 -6,-24 -9,-36 -4,-13 -9,-26 -13,-39l-12 -36c-1,-1 -1,-2 -3,-3l0 17c1,26 1,52 3,79 0,7 2,14 3,22 0,4 2,10 -5,12 -7,1 -8,-5 -9,-10 -1,-18 -3,-35 -3,-53 -1,-28 -1,-55 -2,-83 0,-8 -1,-17 -2,-25 -1,-6 1,-10 5,-11 5,-1 7,3 9,8 6,17 13,33 19,49 4,11 7,22 11,33 1,2 2,4 3,6 0,0 1,0 1,0z"/>
  <path class="fil2" d="M3282 4902c9,0 17,0 26,0 6,0 7,-3 7,-8 -1,-16 -3,-31 -4,-47 -1,-10 -1,-20 -2,-30 0,-6 -1,-13 -2,-19 -1,0 -1,0 -2,0 -7,35 -15,69 -22,104zm53 44c-2,2 -4,5 -7,6 -4,2 -9,-3 -9,-8 -1,-6 -1,-12 -1,-18 0,-6 -3,-8 -8,-8 -9,1 -18,0 -27,1 -2,0 -5,2 -5,4 -2,8 -3,15 -4,23 -1,5 -3,7 -9,7 -5,0 -7,-3 -7,-8 0,-5 1,-10 2,-15l17 -75c6,-25 11,-51 17,-76 1,-4 2,-9 5,-12 2,-2 6,-4 9,-4 2,0 5,4 5,6 7,21 9,43 11,65 2,25 4,51 6,76 1,11 3,23 5,36z"/>
  <path class="fil2" d="M3423 4880c0,7 0,13 0,20 1,9 2,18 2,27 0,6 3,6 9,5l15 -2c2,0 5,1 5,4 0,3 2,7 -2,8 -12,5 -24,8 -36,4 -2,-1 -4,-3 -4,-5 -1,-16 -2,-33 -2,-49 -1,-11 0,-22 0,-34 0,-16 -1,-32 -2,-48 0,-12 -1,-24 -1,-36 0,-5 2,-7 7,-7 4,0 6,2 7,6 0,6 0,11 1,17 0,12 1,23 1,35 1,18 1,36 2,54l-1 0z"/>
  <path class="fil2" d="M3709 4780c-11,1 -21,1 -30,2 -2,0 -5,4 -5,6 1,25 2,50 3,75 1,20 2,40 3,61 0,7 2,13 3,20 1,5 -1,8 -6,8 -5,1 -9,0 -10,-7 -1,-7 -1,-13 -1,-20l-4 -83c-1,-17 -1,-35 -1,-52 0,-6 -3,-8 -8,-9 -7,-1 -14,-1 -21,-2 -3,0 -6,0 -9,-2 -2,-2 -4,-5 -4,-8 0,-1 4,-4 6,-4 4,-1 9,-1 13,0 21,3 42,1 63,-1 6,-1 11,0 17,0 5,0 8,4 8,9 0,5 -3,7 -7,7 -3,0 -6,0 -8,0z"/>
  <path class="fil2" d="M3813 4895c2,-1 3,-1 5,-2 4,-3 7,-7 9,-11 7,-18 13,-37 13,-57 0,-6 0,-11 -2,-17 -3,-11 -9,-20 -19,-26 -4,-3 -8,-1 -9,4 0,2 0,4 0,5 0,7 1,13 1,20 0,11 0,22 0,32 0,6 0,13 0,19 0,11 1,21 1,33zm2 22l0 9c0,5 0,10 -1,15 0,4 -3,6 -6,7 -3,0 -5,-2 -7,-6 -1,-3 -2,-7 -2,-10 -1,-17 -1,-34 -1,-51 -1,-26 -1,-52 -2,-79 0,-8 -1,-16 -1,-24 0,-5 2,-8 7,-9 3,-1 6,-2 8,-4 6,-3 11,-1 16,2 9,5 15,13 21,22 6,9 8,19 8,29 1,18 -1,35 -7,51 -2,6 -3,12 -6,17 -2,5 -5,9 -9,13 -1,2 -2,3 -3,4 -1,2 -1,4 1,6 5,4 9,9 14,13 3,3 6,6 9,10 2,3 3,6 4,10 1,3 -1,5 -3,7 -2,1 -4,1 -6,-1 -4,-2 -7,-6 -9,-9 -6,-8 -13,-16 -21,-21 -1,-1 -2,-1 -3,-1z"/>
  <path class="fil2" d="M3939 4902c9,0 17,0 26,0 6,0 7,-3 7,-8 -1,-16 -3,-31 -4,-47 -1,-10 -1,-20 -2,-30 0,-6 -1,-13 -2,-19 -1,0 -1,0 -2,0 -7,35 -15,69 -22,104zm53 44c-2,2 -4,5 -7,6 -4,2 -9,-3 -9,-8 -1,-6 -1,-12 -1,-18 0,-6 -3,-8 -8,-8 -9,1 -18,0 -27,1 -2,0 -5,2 -5,4 -2,8 -3,15 -4,23 -1,5 -3,7 -9,7 -5,0 -7,-3 -7,-8 0,-5 1,-10 2,-15l17 -75c6,-25 11,-51 17,-76 1,-4 2,-9 5,-12 2,-2 6,-4 9,-4 2,0 5,4 5,6 7,21 9,43 11,65 2,25 4,51 6,76 1,11 3,23 5,36z"/>
  <path class="fil2" d="M4049 4856c0,-25 0,-50 0,-75 0,-2 0,-4 0,-7 1,-6 3,-8 7,-7 3,0 6,3 6,8l0 45c0,29 0,58 0,87 0,10 0,21 3,31 1,4 -1,9 -5,10 -5,1 -9,-2 -10,-8 -1,-15 -2,-30 -2,-46 0,-12 0,-25 0,-37l0 0z"/>
  <path class="fil2" d="M4164 4861l0 -60c0,-8 0,-16 -1,-24 -1,-6 2,-9 6,-9 2,0 7,5 7,8 1,15 1,31 1,46 0,28 1,56 1,84 0,10 3,19 3,28 0,4 2,10 -5,10 -2,0 -5,-2 -6,-3 -1,-2 -2,-5 -2,-8 -3,-12 -6,-24 -9,-36 -4,-13 -9,-26 -13,-39l-12 -36c-1,-1 -1,-2 -3,-3l0 17c1,26 1,52 3,79 0,7 2,14 3,22 0,4 2,10 -5,12 -7,1 -8,-5 -9,-10 -1,-18 -3,-35 -3,-53 -1,-28 -1,-55 -2,-83 0,-8 -1,-17 -2,-25 -1,-6 1,-10 5,-11 5,-1 7,3 9,8 6,17 13,33 19,49 4,11 7,22 11,33 1,2 2,4 3,6 0,0 1,0 1,0z"/>
  <path class="fil2" d="M4272 4902c4,0 8,-1 11,-1 5,-1 8,2 8,7 0,4 -3,7 -7,7 -14,0 -13,-3 -11,14 1,7 1,7 8,7 3,0 6,-1 9,-1 4,-1 7,0 8,5 1,4 -1,8 -6,9 -9,1 -17,5 -26,1 -3,-1 -5,-3 -5,-6 -1,-6 -2,-11 -2,-17 -1,-22 -3,-44 -3,-66 -1,-24 -1,-49 -2,-73 0,-6 -1,-11 2,-17 2,-4 5,-7 10,-6 11,2 23,1 34,-1 7,-1 8,1 9,5 0,6 -3,9 -8,9 -9,0 -17,1 -26,1 -7,0 -7,0 -7,7 0,14 0,29 0,44 1,21 1,42 2,63 0,3 1,7 2,10z"/>
  <path class="fil2" d="M4398 4895c2,-1 3,-1 5,-2 4,-3 7,-7 9,-11 7,-18 13,-37 13,-57 0,-6 0,-11 -2,-17 -3,-11 -9,-20 -19,-26 -4,-3 -8,-1 -9,4 0,2 0,4 0,5 0,7 1,13 1,20 0,11 0,22 0,32 0,6 0,13 0,19 0,11 1,21 1,33zm2 22l0 9c0,5 0,10 -1,15 0,4 -3,6 -6,7 -3,0 -5,-2 -7,-6 -1,-3 -2,-7 -2,-10 -1,-17 -1,-34 -1,-51 -1,-26 -1,-52 -2,-79 0,-8 -1,-16 -1,-24 0,-5 2,-8 7,-9 3,-1 6,-2 8,-4 6,-3 11,-1 16,2 9,5 15,13 21,22 6,9 8,19 8,29 1,18 -1,35 -7,51 -2,6 -3,12 -6,17 -2,5 -5,9 -9,13 -1,2 -2,3 -3,4 -1,2 -1,4 1,6 5,4 9,9 14,13 3,3 6,6 9,10 2,3 3,6 4,10 1,3 -1,5 -3,7 -2,1 -4,1 -6,-1 -4,-2 -7,-6 -9,-9 -6,-8 -13,-16 -21,-21 -1,-1 -2,-1 -3,-1z"/>
 </g>
</svg>
